<?xml version="1.0" standalone="no"?>
<!DOCTYPE svg PUBLIC "-//W3C//DTD SVG 20010904//EN"
 "http://www.w3.org/TR/2001/REC-SVG-20010904/DTD/svg10.dtd">
<svg version="1.0" xmlns="http://www.w3.org/2000/svg"
 width="512.000000pt" height="512.000000pt" viewBox="0 0 512.000000 512.000000"
 preserveAspectRatio="xMidYMid meet">

<g transform="translate(0.000000,512.000000) scale(0.100000,-0.100000)"
fill="#000000" stroke="none">
<path d="M3225 3899 c-748 -175 -1565 -366 -1815 -424 -250 -58 -464 -110
-475 -115 -12 -5 218 -9 562 -9 l581 -1 254 60 c139 32 512 120 828 194 316
74 587 137 601 141 24 6 26 4 27 -37 5 -118 88 -228 201 -266 41 -14 150 -16
184 -3 24 9 26 7 37 -40 l12 -49 134 0 134 0 0 -199 0 -199 -73 -6 c-40 -4
-78 -10 -84 -14 -8 -5 -2 -49 23 -152 18 -80 34 -148 34 -152 0 -5 23 -8 50
-8 l50 0 -2 -192 -3 -193 -75 -5 c-121 -9 -184 -63 -184 -159 1 -100 55 -150
178 -162 44 -4 82 -8 84 -8 1 -1 2 -24 2 -52 0 -48 1 -51 23 -46 12 3 153 36
312 73 160 37 291 68 293 69 1 1 -6 38 -16 81 l-19 79 -65 7 c-104 10 -180 57
-228 141 -76 133 -28 307 105 376 28 14 52 27 54 28 2 1 -4 36 -14 77 l-16 76
-57 1 c-103 1 -188 51 -237 140 -26 47 -30 64 -30 134 0 63 5 89 22 121 29 54
75 99 127 126 22 11 42 22 44 23 1 1 -5 34 -15 74 l-17 71 -41 0 c-158 0 -285
125 -285 280 0 108 68 215 161 254 l37 15 -20 83 c-10 45 -20 83 -21 84 -1 1
-614 -142 -1362 -317z"/>
<path d="M0 3150 c0 -80 2 -90 18 -90 37 0 111 -32 150 -66 119 -102 125 -303
11 -411 -40 -37 -113 -72 -151 -73 l-28 0 0 -78 0 -79 60 -17 c117 -32 200
-141 200 -262 0 -138 -79 -241 -211 -275 l-49 -13 0 -78 0 -78 28 0 c15 0 51
-12 80 -26 165 -82 206 -296 83 -436 -37 -42 -122 -88 -163 -88 l-28 0 0 -90
0 -90 2185 0 2185 0 0 90 0 90 -28 0 c-15 0 -51 12 -80 26 -165 82 -206 296
-83 436 37 42 122 88 163 88 l28 0 0 78 0 78 -49 13 c-176 45 -263 232 -185
397 27 57 109 122 175 141 l59 16 0 79 0 78 -27 0 c-40 0 -123 42 -160 81
-108 114 -98 307 21 404 42 34 111 65 147 65 17 0 19 9 19 90 l0 90 -2185 0
-2185 0 0 -90z m3472 -264 c-4 -64 0 -82 23 -135 48 -106 140 -169 262 -179
l63 -5 0 -518 0 -519 -53 0 c-84 0 -144 -26 -208 -89 -64 -65 -89 -124 -89
-213 l0 -58 -1287 0 -1288 0 0 93 c0 76 -4 99 -23 134 -55 104 -143 162 -254
168 l-63 4 -3 519 -2 519 72 5 c86 6 135 28 196 89 51 52 82 129 82 204 l0 55
1288 0 1287 0 -3 -74z"/>
<path d="M1627 2730 c-89 -23 -174 -93 -217 -180 -67 -133 -16 -320 111 -403
l49 -32 0 -357 0 -358 450 0 450 0 0 79 0 79 200 -94 c110 -52 205 -94 210
-94 6 0 10 138 10 385 0 253 -3 385 -10 385 -6 0 -97 -41 -203 -90 -107 -50
-197 -90 -200 -90 -4 0 -7 36 -7 79 l0 79 34 22 c151 92 194 308 93 457 -63
92 -187 151 -295 140 -113 -12 -215 -84 -269 -191 l-20 -40 -12 37 c-18 54
-93 132 -157 162 -61 29 -157 40 -217 25z m205 -115 c69 -49 101 -104 106
-179 5 -79 -10 -127 -56 -178 -51 -57 -105 -81 -177 -81 -218 -1 -321 259
-163 410 51 49 93 64 175 60 61 -2 78 -7 115 -32z m624 -1 c177 -109 137 -372
-65 -431 -171 -49 -339 119 -292 293 41 151 222 222 357 138z m-368 -417 c9
-11 35 -33 56 -48 l39 -29 -161 0 -160 0 62 63 c35 34 69 79 76 99 l14 38 28
-52 c16 -29 36 -61 46 -71z"/>
<path d="M1644 2521 c-44 -27 -64 -59 -64 -104 0 -135 173 -176 235 -57 20 39
19 79 -5 117 -36 60 -108 79 -166 44z"/>
<path d="M2272 2523 c-39 -19 -65 -64 -65 -113 0 -47 17 -76 56 -100 70 -43
161 -10 185 67 12 37 11 46 -6 86 -31 69 -101 94 -170 60z"/>
</g>
</svg>
